<svg width="75" height="50" viewBox="0 0 75 50" fill="none" xmlns="http://www.w3.org/2000/svg">
<path fill-rule="evenodd" clip-rule="evenodd" d="M21.1448 22.9592H20.0877C19.6692 22.9592 19.5371 22.8056 19.5371 22.3889V19.2084C19.5371 18.309 19.6913 17.2343 19.9997 16.0278H19.8675C19.5812 16.9709 19.2289 17.8264 18.7663 18.6601L17.7531 20.4367C17.5989 20.7438 17.4667 20.8535 17.1144 20.8535H16.4756C16.1233 20.8535 15.9909 20.7658 15.8369 20.4367L14.8237 18.6601C14.4052 17.9801 14.0748 17.1027 13.7664 16.0278H13.6563C13.9206 17.2343 14.0748 18.309 14.0748 19.2084V22.3889C14.0748 22.8056 13.9426 22.9592 13.5021 22.9592H12.5109C12.0704 22.9592 11.9383 22.8056 11.9383 22.3889V13.5271C11.9383 13.1104 12.0704 12.9568 12.5109 12.9568H13.4141C13.8767 12.9568 14.0088 13.0445 14.2292 13.3955L16.8062 18.1553L19.3832 13.3955C19.6036 13.0225 19.7137 12.9568 20.1542 12.9568H21.1454C21.5859 12.9568 21.7401 13.0884 21.7401 13.5271V22.3889C21.7396 22.8276 21.5854 22.9592 21.1448 22.9592ZM24.4929 14.9748H24.2065C23.4355 14.9748 23.2154 14.7334 23.2154 13.9878V13.8342C23.2154 13.0884 23.4355 12.8472 24.2065 12.8472H24.4929C25.2418 12.8472 25.5061 13.0884 25.5061 13.8342V13.9878C25.5059 14.7336 25.2416 14.9748 24.4929 14.9748ZM23.8099 15.633H24.9111C25.2855 15.633 25.4177 15.7646 25.4177 16.1594V22.4328C25.4177 22.8276 25.2855 22.9592 24.9111 22.9592H23.8099C23.4135 22.9592 23.2813 22.8276 23.2813 22.4328V16.1594C23.2813 15.7646 23.4135 15.633 23.8099 15.633ZM32.7084 18.0239L31.8053 18.331C31.3868 18.4845 31.2106 18.3749 31.0564 17.9799C30.8583 17.4975 30.4837 17.2561 29.889 17.2561C29.1401 17.2561 28.7657 17.6071 28.7657 18.3088V20.283C28.7657 20.9849 29.1401 21.3359 29.889 21.3359C30.4837 21.3359 30.8581 21.0947 31.0564 20.612C31.2106 20.2173 31.3868 20.1514 31.8053 20.283L32.7084 20.5681C33.1049 20.6997 33.237 20.9409 33.0828 21.3139C32.5542 22.5422 31.4749 23.1784 29.8451 23.1784C27.7086 23.1784 26.6292 22.1694 26.6292 20.1953V18.4187C26.6292 16.5102 27.7304 15.4355 29.977 15.4355C31.607 15.4355 32.6642 16.1813 33.0608 17.3C33.1931 17.7168 33.0828 17.8703 32.7084 18.0239ZM37.7745 22.9592H34.6689C34.2725 22.9592 34.1403 22.8276 34.1403 22.4328V16.1594C34.1403 15.7646 34.2725 15.633 34.6689 15.633H35.7701C36.1447 15.633 36.2768 15.7646 36.2768 16.1594V17.6071H37.7745C39.4705 17.6071 40.5278 18.6161 40.5278 20.2612C40.5276 21.9501 39.4705 22.9592 37.7745 22.9592ZM37.4661 19.4496H36.2766V21.1386H37.4661C37.9947 21.1386 38.3472 20.7876 38.3472 20.2612C38.3472 19.7785 37.9947 19.4496 37.4661 19.4496ZM46.0563 18.8354C46.3205 19.0329 46.6069 19.3618 46.8272 19.8444L48.0386 22.3232C48.2808 22.7838 48.1928 22.9594 47.6861 22.9594H46.717C46.1222 22.9594 45.968 22.8935 45.792 22.4767L45.043 20.7438C44.8888 20.371 44.6025 20.1955 44.162 20.1955H43.6553V22.4328C43.6553 22.8276 43.5231 22.9592 43.1267 22.9592H42.0694C41.6509 22.9592 41.5188 22.8276 41.5188 22.4328V16.1813C41.5188 15.7646 41.6509 15.633 42.0694 15.633H43.1267C43.5231 15.633 43.6553 15.7646 43.6553 16.1813V18.309H43.9416H44.0517L45.6155 16.0717C45.858 15.6769 46.012 15.633 46.6287 15.633H47.576C48.1045 15.633 48.2367 15.8523 47.9285 16.269L46.0563 18.8354ZM55.0649 22.9592H53.9636C53.5891 22.9592 53.4351 22.8276 53.4351 22.4328V20.6342C53.4351 19.9982 53.5672 19.2523 53.8315 18.353H53.7435C53.5672 18.8574 53.2809 19.3839 52.9286 19.9762L51.2105 22.6742C51.0784 22.8497 50.9021 22.9594 50.682 22.9594H49.5807C49.1841 22.9594 49.052 22.8278 49.052 22.433V16.1596C49.052 15.7648 49.1841 15.6332 49.5807 15.6332H50.682C51.0565 15.6332 51.1885 15.7648 51.1885 16.1596V17.9801C51.1885 18.6601 51.0784 19.4059 50.836 20.2614H50.9021C51.0563 19.8007 51.3206 19.2523 51.6729 18.6601L53.4351 15.9182C53.5672 15.7426 53.7435 15.633 53.9636 15.633H55.0649C55.4394 15.633 55.5714 15.7646 55.5714 16.1594V22.4328C55.5714 22.8276 55.4393 22.9592 55.0649 22.9592ZM62.9941 22.9592H61.8929C61.5183 22.9592 61.3643 22.8276 61.3643 22.4328V20.6342C61.3643 19.9982 61.4965 19.2523 61.7389 18.353H61.6727C61.4965 18.8574 61.2101 19.3839 60.8578 19.9762L59.1398 22.6742C59.0076 22.8497 58.8314 22.9594 58.6112 22.9594H57.51C57.1136 22.9594 56.9814 22.8278 56.9814 22.433V16.1596C56.9814 15.7648 57.1136 15.6332 57.51 15.6332H58.6112C58.9856 15.6332 59.1177 15.7648 59.1177 16.1596V17.9801C59.1177 18.6601 59.0076 19.4059 58.7654 20.2614H58.8095C58.9858 19.8007 59.2501 19.2523 59.6024 18.6601L61.3645 15.9182C61.4967 15.7426 61.6729 15.633 61.8931 15.633H62.9943C63.3687 15.633 63.5008 15.7646 63.5008 16.1594V22.4328C63.5007 22.8276 63.3687 22.9592 62.9941 22.9592ZM60.3509 14.7775C59.2276 14.7775 58.3907 14.2512 58.0823 13.3518C57.9942 13.1105 58.0823 12.957 58.3025 12.8911L59.0293 12.584C59.3157 12.4963 59.4478 12.54 59.5579 12.7595C59.7121 13.1323 59.9543 13.3078 60.3507 13.3078C60.7033 13.3078 60.9675 13.1323 61.1438 12.7595C61.2318 12.5622 61.386 12.5183 61.5843 12.584L62.4213 12.8911C62.6416 12.9788 62.7297 13.1323 62.6416 13.3518C62.3114 14.251 61.4744 14.7775 60.3509 14.7775ZM18.6558 38.8839H17.6426C17.2462 38.8839 17.092 38.7523 17.092 38.3575V36.9317H12.2904C11.894 36.9317 11.7837 36.8001 11.7837 36.4054V30.132C11.7837 29.7372 11.8938 29.6056 12.2904 29.6056H13.3916C13.766 29.6056 13.8981 29.7372 13.8981 30.132V35.0015H15.9685V30.132C15.9685 29.7372 16.1006 29.6056 16.4971 29.6056H17.5983C17.9727 29.6056 18.1048 29.7372 18.1048 30.132V35.0015H18.6554C19.03 35.0015 19.1621 35.1331 19.1621 35.5279V38.3575C19.1625 38.7523 19.0304 38.8839 18.6558 38.8839ZM25.8804 33.9266H21.9597V34.2777C21.9597 35.0235 22.4003 35.3963 23.2372 35.3963C23.832 35.3963 24.2945 35.1988 24.5809 34.826C24.8231 34.4969 24.9773 34.4312 25.3958 34.6505L26.0786 35.0014C26.4529 35.1769 26.5191 35.462 26.2989 35.8349C25.7483 36.6903 24.7351 37.129 23.2154 37.129C20.9026 37.129 19.8455 35.9227 19.8455 34.0143V32.5226C19.8455 30.5046 21.0349 29.4079 23.2154 29.4079C25.462 29.4079 26.6073 30.6362 26.6073 32.3691V33.2245C26.6073 33.6854 26.3869 33.9266 25.8804 33.9266ZM24.4708 32.1718C24.4708 31.4479 24.0523 31.0971 23.2154 31.0971C22.4005 31.0971 21.9599 31.4479 21.9599 32.1718V32.391H24.4708V32.1718ZM33.6336 36.9317H32.5542C32.1578 36.9317 32.0257 36.8001 32.0257 36.4054V34.19H29.8451V36.4054C29.8451 36.8001 29.7129 36.9317 29.3384 36.9317H28.2371C27.8407 36.9317 27.7086 36.8001 27.7086 36.4054V30.132C27.7086 29.7372 27.8407 29.6056 28.2371 29.6056H29.3384C29.7129 29.6056 29.8451 29.7372 29.8451 30.132V32.2377H32.0257V30.132C32.0257 29.7372 32.1578 29.6056 32.5542 29.6056H33.6336C34.0301 29.6056 34.1403 29.7372 34.1403 30.132V36.4054C34.1401 36.8001 34.0301 36.9317 33.6336 36.9317ZM40.9022 31.5358H39.2942V36.4054C39.2942 36.8001 39.1621 36.9317 38.7657 36.9317H37.6863C37.2899 36.9317 37.1577 36.8001 37.1577 36.4054V31.5358H35.5498C35.1533 31.5358 35.0433 31.4042 35.0433 31.0313V30.132C35.0433 29.7372 35.1533 29.6056 35.5498 29.6056H40.9022C41.2986 29.6056 41.4307 29.7372 41.4307 30.132V31.0313C41.4307 31.4042 41.2986 31.5358 40.9022 31.5358ZM45.5275 37.129C45.1971 37.129 44.8447 37.0851 44.4042 37.0194V39.4981C44.4042 39.8929 44.2941 40.0245 43.8975 40.0245H42.8183C42.4219 40.0245 42.2898 39.8929 42.2898 39.4981V30.6583C42.2898 30.1757 42.3998 30.0221 42.8404 29.8248C43.6114 29.5397 44.5584 29.4081 45.7038 29.4081C47.7743 29.4081 48.7873 30.4391 48.7873 32.3036V34.0802C48.7873 36.0763 47.6861 37.129 45.5275 37.129ZM46.6289 32.3253C46.6289 31.6454 46.2546 31.2944 45.4615 31.2944C45.1311 31.2944 44.8008 31.3163 44.4924 31.404C44.4485 31.404 44.4044 31.4479 44.4044 31.4917V35.1547C44.7569 35.1987 45.0872 35.2424 45.3514 35.2424C46.2105 35.2424 46.6289 34.8476 46.6289 34.0798V32.3253ZM54.7124 36.9317H53.545C53.1044 36.9317 52.9723 36.7782 52.9723 36.3614V27.4997C52.9723 27.0829 53.1044 26.9294 53.545 26.9294H54.7124C55.1088 26.9294 55.263 27.0829 55.263 27.4997V36.3614C55.263 36.7782 55.1088 36.9317 54.7124 36.9317ZM63.5889 29.0131H61.3864V36.3395C61.3864 36.7782 61.2322 36.9317 60.8137 36.9317H59.6684C59.2278 36.9317 59.0957 36.7782 59.0957 36.3395V29.0131H56.893C56.4525 29.0131 56.3203 28.8815 56.3203 28.4648V27.5216C56.3203 27.0829 56.4525 26.9294 56.893 26.9294H63.5889C64.0074 26.9294 64.1616 27.0829 64.1616 27.5216V28.4648C64.1616 28.8817 64.0074 29.0131 63.5889 29.0131Z" fill="white"/>
<path fill-rule="evenodd" clip-rule="evenodd" d="M21.1448 22.9592H20.0877C19.6692 22.9592 19.5371 22.8056 19.5371 22.3889V19.2084C19.5371 18.309 19.6913 17.2343 19.9997 16.0278H19.8675C19.5812 16.9709 19.2289 17.8264 18.7663 18.6601L17.7531 20.4367C17.5989 20.7438 17.4667 20.8535 17.1144 20.8535H16.4756C16.1233 20.8535 15.9909 20.7658 15.8369 20.4367L14.8237 18.6601C14.4052 17.9801 14.0748 17.1027 13.7664 16.0278H13.6563C13.9206 17.2343 14.0748 18.309 14.0748 19.2084V22.3889C14.0748 22.8056 13.9426 22.9592 13.5021 22.9592H12.5109C12.0704 22.9592 11.9383 22.8056 11.9383 22.3889V13.5271C11.9383 13.1104 12.0704 12.9568 12.5109 12.9568H13.4141C13.8767 12.9568 14.0088 13.0445 14.2292 13.3955L16.8062 18.1553L19.3832 13.3955C19.6036 13.0225 19.7137 12.9568 20.1542 12.9568H21.1454C21.5859 12.9568 21.7401 13.0884 21.7401 13.5271V22.3889C21.7396 22.8276 21.5854 22.9592 21.1448 22.9592ZM24.4929 14.9748H24.2065C23.4355 14.9748 23.2154 14.7334 23.2154 13.9878V13.8342C23.2154 13.0884 23.4355 12.8472 24.2065 12.8472H24.4929C25.2418 12.8472 25.5061 13.0884 25.5061 13.8342V13.9878C25.5059 14.7336 25.2416 14.9748 24.4929 14.9748ZM23.8099 15.633H24.9111C25.2855 15.633 25.4177 15.7646 25.4177 16.1594V22.4328C25.4177 22.8276 25.2855 22.9592 24.9111 22.9592H23.8099C23.4135 22.9592 23.2813 22.8276 23.2813 22.4328V16.1594C23.2813 15.7646 23.4135 15.633 23.8099 15.633ZM32.7084 18.0239L31.8053 18.331C31.3868 18.4845 31.2106 18.3749 31.0564 17.9799C30.8583 17.4975 30.4837 17.2561 29.889 17.2561C29.1401 17.2561 28.7657 17.6071 28.7657 18.3088V20.283C28.7657 20.9849 29.1401 21.3359 29.889 21.3359C30.4837 21.3359 30.8581 21.0947 31.0564 20.612C31.2106 20.2173 31.3868 20.1514 31.8053 20.283L32.7084 20.5681C33.1049 20.6997 33.237 20.9409 33.0828 21.3139C32.5542 22.5422 31.4749 23.1784 29.8451 23.1784C27.7086 23.1784 26.6292 22.1694 26.6292 20.1953V18.4187C26.6292 16.5102 27.7304 15.4355 29.977 15.4355C31.607 15.4355 32.6642 16.1813 33.0608 17.3C33.1931 17.7168 33.0828 17.8703 32.7084 18.0239ZM37.7745 22.9592H34.6689C34.2725 22.9592 34.1403 22.8276 34.1403 22.4328V16.1594C34.1403 15.7646 34.2725 15.633 34.6689 15.633H35.7701C36.1447 15.633 36.2768 15.7646 36.2768 16.1594V17.6071H37.7745C39.4705 17.6071 40.5278 18.6161 40.5278 20.2612C40.5276 21.9501 39.4705 22.9592 37.7745 22.9592ZM37.4661 19.4496H36.2766V21.1386H37.4661C37.9947 21.1386 38.3472 20.7876 38.3472 20.2612C38.3472 19.7785 37.9947 19.4496 37.4661 19.4496ZM46.0563 18.8354C46.3205 19.0329 46.6069 19.3618 46.8272 19.8444L48.0386 22.3232C48.2808 22.7838 48.1928 22.9594 47.6861 22.9594H46.717C46.1222 22.9594 45.968 22.8935 45.792 22.4767L45.043 20.7438C44.8888 20.371 44.6025 20.1955 44.162 20.1955H43.6553V22.4328C43.6553 22.8276 43.5231 22.9592 43.1267 22.9592H42.0694C41.6509 22.9592 41.5188 22.8276 41.5188 22.4328V16.1813C41.5188 15.7646 41.6509 15.633 42.0694 15.633H43.1267C43.5231 15.633 43.6553 15.7646 43.6553 16.1813V18.309H43.9416H44.0517L45.6155 16.0717C45.858 15.6769 46.012 15.633 46.6287 15.633H47.576C48.1045 15.633 48.2367 15.8523 47.9285 16.269L46.0563 18.8354ZM55.0649 22.9592H53.9636C53.5891 22.9592 53.4351 22.8276 53.4351 22.4328V20.6342C53.4351 19.9982 53.5672 19.2523 53.8315 18.353H53.7435C53.5672 18.8574 53.2809 19.3839 52.9286 19.9762L51.2105 22.6742C51.0784 22.8497 50.9021 22.9594 50.682 22.9594H49.5807C49.1841 22.9594 49.052 22.8278 49.052 22.433V16.1596C49.052 15.7648 49.1841 15.6332 49.5807 15.6332H50.682C51.0565 15.6332 51.1885 15.7648 51.1885 16.1596V17.9801C51.1885 18.6601 51.0784 19.4059 50.836 20.2614H50.9021C51.0563 19.8007 51.3206 19.2523 51.6729 18.6601L53.4351 15.9182C53.5672 15.7426 53.7435 15.633 53.9636 15.633H55.0649C55.4394 15.633 55.5714 15.7646 55.5714 16.1594V22.4328C55.5714 22.8276 55.4393 22.9592 55.0649 22.9592ZM62.9941 22.9592H61.8929C61.5183 22.9592 61.3643 22.8276 61.3643 22.4328V20.6342C61.3643 19.9982 61.4965 19.2523 61.7389 18.353H61.6727C61.4965 18.8574 61.2101 19.3839 60.8578 19.9762L59.1398 22.6742C59.0076 22.8497 58.8314 22.9594 58.6112 22.9594H57.51C57.1136 22.9594 56.9814 22.8278 56.9814 22.433V16.1596C56.9814 15.7648 57.1136 15.6332 57.51 15.6332H58.6112C58.9856 15.6332 59.1177 15.7648 59.1177 16.1596V17.9801C59.1177 18.6601 59.0076 19.4059 58.7654 20.2614H58.8095C58.9858 19.8007 59.2501 19.2523 59.6024 18.6601L61.3645 15.9182C61.4967 15.7426 61.6729 15.633 61.8931 15.633H62.9943C63.3687 15.633 63.5008 15.7646 63.5008 16.1594V22.4328C63.5007 22.8276 63.3687 22.9592 62.9941 22.9592ZM60.3509 14.7775C59.2276 14.7775 58.3907 14.2512 58.0823 13.3518C57.9942 13.1105 58.0823 12.957 58.3025 12.8911L59.0293 12.584C59.3157 12.4963 59.4478 12.54 59.5579 12.7595C59.7121 13.1323 59.9543 13.3078 60.3507 13.3078C60.7033 13.3078 60.9675 13.1323 61.1438 12.7595C61.2318 12.5622 61.386 12.5183 61.5843 12.584L62.4213 12.8911C62.6416 12.9788 62.7297 13.1323 62.6416 13.3518C62.3114 14.251 61.4744 14.7775 60.3509 14.7775ZM18.6558 38.8839H17.6426C17.2462 38.8839 17.092 38.7523 17.092 38.3575V36.9317H12.2904C11.894 36.9317 11.7837 36.8001 11.7837 36.4054V30.132C11.7837 29.7372 11.8938 29.6056 12.2904 29.6056H13.3916C13.766 29.6056 13.8981 29.7372 13.8981 30.132V35.0015H15.9685V30.132C15.9685 29.7372 16.1006 29.6056 16.4971 29.6056H17.5983C17.9727 29.6056 18.1048 29.7372 18.1048 30.132V35.0015H18.6554C19.03 35.0015 19.1621 35.1331 19.1621 35.5279V38.3575C19.1625 38.7523 19.0304 38.8839 18.6558 38.8839ZM25.8804 33.9266H21.9597V34.2777C21.9597 35.0235 22.4003 35.3963 23.2372 35.3963C23.832 35.3963 24.2945 35.1988 24.5809 34.826C24.8231 34.4969 24.9773 34.4312 25.3958 34.6505L26.0786 35.0014C26.4529 35.1769 26.5191 35.462 26.2989 35.8349C25.7483 36.6903 24.7351 37.129 23.2154 37.129C20.9026 37.129 19.8455 35.9227 19.8455 34.0143V32.5226C19.8455 30.5046 21.0349 29.4079 23.2154 29.4079C25.462 29.4079 26.6073 30.6362 26.6073 32.3691V33.2245C26.6073 33.6854 26.3869 33.9266 25.8804 33.9266ZM24.4708 32.1718C24.4708 31.4479 24.0523 31.0971 23.2154 31.0971C22.4005 31.0971 21.9599 31.4479 21.9599 32.1718V32.391H24.4708V32.1718ZM33.6336 36.9317H32.5542C32.1578 36.9317 32.0257 36.8001 32.0257 36.4054V34.19H29.8451V36.4054C29.8451 36.8001 29.7129 36.9317 29.3384 36.9317H28.2371C27.8407 36.9317 27.7086 36.8001 27.7086 36.4054V30.132C27.7086 29.7372 27.8407 29.6056 28.2371 29.6056H29.3384C29.7129 29.6056 29.8451 29.7372 29.8451 30.132V32.2377H32.0257V30.132C32.0257 29.7372 32.1578 29.6056 32.5542 29.6056H33.6336C34.0301 29.6056 34.1403 29.7372 34.1403 30.132V36.4054C34.1401 36.8001 34.0301 36.9317 33.6336 36.9317ZM40.9022 31.5358H39.2942V36.4054C39.2942 36.8001 39.1621 36.9317 38.7657 36.9317H37.6863C37.2899 36.9317 37.1577 36.8001 37.1577 36.4054V31.5358H35.5498C35.1533 31.5358 35.0433 31.4042 35.0433 31.0313V30.132C35.0433 29.7372 35.1533 29.6056 35.5498 29.6056H40.9022C41.2986 29.6056 41.4307 29.7372 41.4307 30.132V31.0313C41.4307 31.4042 41.2986 31.5358 40.9022 31.5358ZM45.5275 37.129C45.1971 37.129 44.8447 37.0851 44.4042 37.0194V39.4981C44.4042 39.8929 44.2941 40.0245 43.8975 40.0245H42.8183C42.4219 40.0245 42.2898 39.8929 42.2898 39.4981V30.6583C42.2898 30.1757 42.3998 30.0221 42.8404 29.8248C43.6114 29.5397 44.5584 29.4081 45.7038 29.4081C47.7743 29.4081 48.7873 30.4391 48.7873 32.3036V34.0802C48.7873 36.0763 47.6861 37.129 45.5275 37.129ZM46.6289 32.3253C46.6289 31.6454 46.2546 31.2944 45.4615 31.2944C45.1311 31.2944 44.8008 31.3163 44.4924 31.404C44.4485 31.404 44.4044 31.4479 44.4044 31.4917V35.1547C44.7569 35.1987 45.0872 35.2424 45.3514 35.2424C46.2105 35.2424 46.6289 34.8476 46.6289 34.0798V32.3253ZM54.7124 36.9317H53.545C53.1044 36.9317 52.9723 36.7782 52.9723 36.3614V27.4997C52.9723 27.0829 53.1044 26.9294 53.545 26.9294H54.7124C55.1088 26.9294 55.263 27.0829 55.263 27.4997V36.3614C55.263 36.7782 55.1088 36.9317 54.7124 36.9317ZM63.5889 29.0131H61.3864V36.3395C61.3864 36.7782 61.2322 36.9317 60.8137 36.9317H59.6684C59.2278 36.9317 59.0957 36.7782 59.0957 36.3395V29.0131H56.893C56.4525 29.0131 56.3203 28.8815 56.3203 28.4648V27.5216C56.3203 27.0829 56.4525 26.9294 56.893 26.9294H63.5889C64.0074 26.9294 64.1616 27.0829 64.1616 27.5216V28.4648C64.1616 28.8817 64.0074 29.0131 63.5889 29.0131Z" fill="white"/>
<path fill-rule="evenodd" clip-rule="evenodd" d="M-3.42233e-08 0.0170901V11.5988H4.44927V4.46993H11.6298V0.0170901H-3.42233e-08Z" fill="white"/>
<path fill-rule="evenodd" clip-rule="evenodd" d="M74.9653 -1.22695e-06V11.5817H70.516V4.45284H63.3355V-1.22695e-06H74.9653Z" fill="white"/>
<path fill-rule="evenodd" clip-rule="evenodd" d="M74.9999 50V38.4185H70.5506V45.5474H63.3701V50H74.9999Z" fill="white"/>
<path fill-rule="evenodd" clip-rule="evenodd" d="M-3.42233e-08 49.9816V38.4001H4.44927V45.5289H11.6296V49.9816H-3.42233e-08Z" fill="white"/>
</svg>
